<svg width="32" height="32" viewBox="0 0 32 32" fill="none" xmlns="http://www.w3.org/2000/svg">
<path d="M25.24 15.56C25.2453 15.5157 25.2453 15.4709 25.24 15.4267C24.2463 13.0554 22.3662 11.1658 20 10.16V5.33332H21.3333C21.687 5.33332 22.0261 5.19285 22.2762 4.9428C22.5262 4.69275 22.6667 4.35361 22.6667 3.99999C22.6667 3.64637 22.5262 3.30723 22.2762 3.05718C22.0261 2.80713 21.687 2.66666 21.3333 2.66666H10.6667C10.3131 2.66666 9.97392 2.80713 9.72387 3.05718C9.47382 3.30723 9.33335 3.64637 9.33335 3.99999C9.33335 4.35361 9.47382 4.69275 9.72387 4.9428C9.97392 5.19285 10.3131 5.33332 10.6667 5.33332H12V10.16C9.64146 11.1929 7.78011 13.1069 6.81335 15.4933C6.80804 15.5376 6.80804 15.5824 6.81335 15.6267C6.1846 17.1459 5.94018 18.7968 6.10173 20.4331C6.26328 22.0694 6.82582 23.6406 7.73953 25.0076C8.65323 26.3746 9.88992 27.4952 11.3401 28.2702C12.7902 29.0451 14.4091 29.4506 16.0533 29.4506C17.6976 29.4506 19.3165 29.0451 20.7666 28.2702C22.2168 27.4952 23.4535 26.3746 24.3672 25.0076C25.2809 23.6406 25.8434 22.0694 26.005 20.4331C26.1665 18.7968 25.9221 17.1459 25.2933 15.6267L25.24 15.56ZM13.7467 12.3467C14.014 12.2595 14.2469 12.0901 14.4122 11.8626C14.5774 11.6351 14.6665 11.3612 14.6667 11.08V5.33332H17.3333V11.08C17.3336 11.3612 17.4226 11.6351 17.5879 11.8626C17.7531 12.0901 17.986 12.2595 18.2533 12.3467C19.5824 12.777 20.7586 13.5828 21.64 14.6667H10.36C11.2414 13.5828 12.4176 12.777 13.7467 12.3467ZM16 26.6667C14.0562 26.6631 12.193 25.8894 10.8185 24.5149C9.44395 23.1404 8.67021 21.2772 8.66668 19.3333C8.66884 18.6561 8.76762 17.9826 8.96001 17.3333H23.04C23.2324 17.9826 23.3312 18.6561 23.3333 19.3333C23.3298 21.2772 22.5561 23.1404 21.1816 24.5149C19.8071 25.8894 17.9439 26.6631 16 26.6667ZM18.6667 21.3333C18.403 21.3333 18.1452 21.4115 17.9259 21.558C17.7067 21.7045 17.5358 21.9128 17.4348 22.1564C17.3339 22.4 17.3075 22.6681 17.359 22.9268C17.4104 23.1854 17.5374 23.423 17.7239 23.6095C17.9103 23.7959 18.1479 23.9229 18.4066 23.9744C18.6652 24.0258 18.9333 23.9994 19.1769 23.8985C19.4206 23.7976 19.6288 23.6267 19.7753 23.4074C19.9218 23.1882 20 22.9304 20 22.6667C20 22.313 19.8595 21.9739 19.6095 21.7238C19.3594 21.4738 19.0203 21.3333 18.6667 21.3333ZM13.3333 20C13.0696 20 12.8119 20.0782 12.5926 20.2247C12.3733 20.3712 12.2024 20.5794 12.1015 20.8231C12.0006 21.0667 11.9742 21.3348 12.0256 21.5934C12.0771 21.8521 12.2041 22.0897 12.3905 22.2761C12.577 22.4626 12.8146 22.5896 13.0732 22.641C13.3319 22.6925 13.6 22.6661 13.8436 22.5652C14.0872 22.4642 14.2955 22.2934 14.442 22.0741C14.5885 21.8548 14.6667 21.597 14.6667 21.3333C14.6667 20.9797 14.5262 20.6406 14.2762 20.3905C14.0261 20.1405 13.687 20 13.3333 20Z" fill="#888888"/>
</svg>
