<svg width="25" height="24" viewBox="0 0 25 24" fill="none" xmlns="http://www.w3.org/2000/svg">
<path d="M7.06625 5.834L7.51125 3.608C7.60191 3.15444 7.84696 2.74633 8.2047 2.45314C8.56243 2.15995 9.01072 1.99982 9.47325 2H16.1933C16.6558 1.99982 17.1041 2.15995 17.4618 2.45314C17.8195 2.74633 18.0646 3.15444 18.1553 3.608L18.6003 5.834C18.6701 6.18279 18.8375 6.50459 19.0831 6.76198C19.3286 7.01938 19.6421 7.20178 19.9873 7.288C20.8003 7.49138 21.5219 7.96068 22.0376 8.6213C22.5533 9.28192 22.8333 10.0959 22.8333 10.934V18C22.8333 19.0609 22.4118 20.0783 21.6617 20.8284C20.9115 21.5786 19.8941 22 18.8333 22H6.83325C5.77239 22 4.75497 21.5786 4.00482 20.8284C3.25468 20.0783 2.83325 19.0609 2.83325 18V10.934C2.83318 10.0959 3.11323 9.28192 3.6289 8.6213C4.14456 7.96068 4.86625 7.49138 5.67925 7.288C6.02436 7.20178 6.33791 7.01938 6.58345 6.76198C6.82898 6.50459 6.9964 6.18279 7.06625 5.834V5.834Z" stroke="white" stroke-width="2" stroke-linecap="round" stroke-linejoin="round"/>
<path d="M12.8333 18C15.0424 18 16.8333 16.2091 16.8333 14C16.8333 11.7909 15.0424 10 12.8333 10C10.6241 10 8.83325 11.7909 8.83325 14C8.83325 16.2091 10.6241 18 12.8333 18Z" stroke="white" stroke-width="2" stroke-linecap="round" stroke-linejoin="round"/>
<path d="M11.8333 6H13.8333" stroke="white" stroke-width="2" stroke-linecap="round" stroke-linejoin="round"/>
</svg>
