<svg xmlns="http://www.w3.org/2000/svg" version="1.1" xmlns:xlink="http://www.w3.org/1999/xlink" xmlns:svgjs="http://svgjs.com/svgjs" width="512" height="512" x="0" y="0" viewBox="0 0 34 34" style="enable-background:new 0 0 512 512" xml:space="preserve" class=""><g><g><path d="m2.9 32c0 .6.4 1 1 1h26.2c.6 0 1-.4 1-1s-.4-1-1-1h-9c1.4-1.1 2.5-2.5 3.2-4.1 3.8-.6 6.8-3.9 6.8-7.8 0-2.3-1.8-4.1-4.1-4.1h-1.9v-2c0-.6-.4-1-1-1h-17.9c-.6 0-1 .4-1 1v10.1c0 3.2 1.6 6.1 4 7.9h-5.3c-.5 0-1 .4-1 1zm24.1-15c1.2 0 2.1 1 2.1 2.1 0 2.6-1.7 4.9-4.1 5.6.1-.5.1-1.1.1-1.6v-6.1zm-19.8 6.1v-9.1h15.9v9.1c0 4.1-3.2 7.6-7.2 7.9h-1.4c-4.2-.4-7.3-3.8-7.3-7.9z" fill="#000000" data-original="#000000"></path><path d="m16.1 28c0-.6-.4-1-1-1-2.2 0-4-1.8-4-4v-1c0-.6-.4-1-1-1s-1 .4-1 1v1.1c0 3.3 2.7 6 6 6 .6-.1 1-.5 1-1.1z" fill="#000000" data-original="#000000"></path><path d="m11.1 4.3c.2-.5-.1-1.1-.6-1.3-.5-.1-1.1.1-1.3.7-.1.4-1.5 2-.4 3.7.1.1 1.2 1.3.6 1.9-.4.4-.4 1 0 1.4s1 .4 1.4 0c1.3-1.3.7-3.3-.4-4.5-.2-.5.5-1.2.7-1.9z" fill="#000000" data-original="#000000"></path><path d="m16.2 2.3c.2-.5-.1-1.1-.6-1.3s-1.1.1-1.3.6c-.1.4-1.5 2-.4 3.7.1.1 1.2 1.3.6 1.9-.4.4-.4 1 0 1.4s1 .4 1.4 0c1.3-1.3.7-3.3-.4-4.5-.2-.4.5-1.1.7-1.8z" fill="#000000" data-original="#000000"></path><path d="m21.3 4.3c.2-.5-.1-1.1-.6-1.3s-1.1.1-1.3.6c-.1.4-1.5 2-.4 3.7.1.1 1.2 1.3.6 1.9-.4.4-.4 1 0 1.4s1 .4 1.4 0c1.3-1.3.7-3.3-.4-4.5-.2-.4.5-1.1.7-1.8z" fill="#000000" data-original="#000000"></path></g></g></svg>