<svg xmlns="http://www.w3.org/2000/svg" version="1.1" xmlns:xlink="http://www.w3.org/1999/xlink" xmlns:svgjs="http://svgjs.com/svgjs" width="512" height="512" x="0" y="0" viewBox="0 0 512 512" style="enable-background:new 0 0 512 512" xml:space="preserve" class=""><g><g><g><path d="m502 502h-120c0-33.14 26.86-60 60-60s60 26.86 60 60z" fill="#ff7b79" data-original="#ff7b79"></path><circle cx="442" cy="377" fill="#ffda8f" r="45" data-original="#ffda8f"></circle><path d="m322 502h-132c0-33.14 32.86-60 66-60s66 26.86 66 60z" fill="#ff7b79" data-original="#ff7b79"></path><circle cx="256" cy="377" fill="#c3906d" r="45" data-original="#c3906d"></circle><path d="m376 130c0-24.18-14.37-44.89-34.98-54.39-.06-.03-.13-.06-.19-.09 3.2-6.18 5.17-13.09 5.17-20.52 0-24.85-20.15-45-45-45s-45 20.15-45 45c0-24.85-20.15-45-45-45s-45 20.15-45 45c0 7.43 1.97 14.34 5.17 20.52-.06.03-.13.06-.19.09-20.61 9.5-34.98 30.21-34.98 54.39s14.37 44.89 34.98 54.39c.06.03.13.06.19.09-3.2 6.18-5.17 13.09-5.17 20.52 0 24.85 20.15 45 45 45s45-20.15 45-45c0 24.85 20.15 45 45 45s45-20.15 45-45c0-7.43-1.97-14.34-5.17-20.52.06-.03.13-.06.19-.09 20.61-9.5 34.98-30.21 34.98-54.39z" fill="#fce8d0" data-original="#fce8d0" class=""></path><path d="m130 502h-120c0-33.14 26.86-60 60-60s60 26.86 60 60z" fill="#ff7b79" data-original="#ff7b79"></path><circle cx="70" cy="377" fill="#fce8d0" r="45" data-original="#fce8d0" class=""></circle></g><g><path d="m125 377c0-30.327-24.673-55-55-55s-55 24.673-55 55 24.673 55 55 55 55-24.673 55-55zm-55 35c-19.299 0-35-15.701-35-35s15.701-35 35-35 35 15.701 35 35-15.701 35-35 35z" fill="#000000" data-original="#000000" class=""></path><path d="m0 502c0 5.522 4.478 10 10 10h120c5.522 0 10-4.478 10-10 0-38.598-31.402-70-70-70s-70 31.402-70 70zm70-50c24.146 0 44.35 17.206 48.995 40h-97.99c4.645-22.794 24.849-40 48.995-40z" fill="#000000" data-original="#000000" class=""></path><path d="m311 377c0-30.327-24.673-55-55-55s-55 24.673-55 55 24.673 55 55 55 55-24.673 55-55zm-55 35c-19.299 0-35-15.701-35-35s15.701-35 35-35 35 15.701 35 35-15.701 35-35 35z" fill="#000000" data-original="#000000" class=""></path><path d="m497 377c0-30.327-24.673-55-55-55s-55 24.673-55 55 24.673 55 55 55 55-24.673 55-55zm-55 35c-19.299 0-35-15.701-35-35s15.701-35 35-35 35 15.701 35 35-15.701 35-35 35z" fill="#000000" data-original="#000000" class=""></path><path d="m442 432c-38.598 0-70 31.402-70 70 0 5.522 4.478 10 10 10h120c5.522 0 10-4.478 10-10 0-38.598-31.402-70-70-70zm-48.995 60c4.646-22.794 24.85-40 48.995-40s44.35 17.206 48.995 40z" fill="#000000" data-original="#000000" class=""></path><path d="m386 130c0-23.978-12.503-46.222-32.513-58.954 1.67-5.247 2.513-10.615 2.513-16.046 0-30.327-24.673-55-55-55-18.58 0-35.038 9.261-45 23.409-9.962-14.148-26.42-23.409-45-23.409-30.327 0-55 24.673-55 55 0 5.431.843 10.799 2.513 16.046-20.01 12.732-32.513 34.976-32.513 58.954s12.503 46.222 32.513 58.954c-1.67 5.247-2.513 10.615-2.513 16.046 0 30.327 24.673 55 55 55 18.58 0 35.038-9.261 45-23.409 9.962 14.148 26.42 23.409 45 23.409 30.327 0 55-24.673 55-55 0-5.431-.843-10.799-2.513-16.046 20.01-12.732 32.513-34.976 32.513-58.954zm-175 110c-19.299 0-35-15.701-35-35 0-9.247 4.366-18.862 10.252-24.75 3.904-3.906 3.903-10.237-.002-14.143-3.906-3.905-10.236-3.903-14.143.002-1.566 1.567-3.029 3.221-4.389 4.953-13.409-9.234-21.718-24.576-21.718-41.062s8.309-31.828 21.719-41.062c1.36 1.731 2.823 3.386 4.389 4.953 3.905 3.905 10.235 3.907 14.143.002 3.905-3.905 3.906-10.236.002-14.143-5.809-5.808-10.253-15.406-10.253-24.75 0-19.299 15.701-35 35-35s35 15.701 35 35v65h-20c-5.522 0-10 4.478-10 10s4.478 10 10 10h20v65c0 19.299-15.701 35-35 35zm133.281-68.938c-1.36-1.731-2.823-3.386-4.389-4.953-3.904-3.905-10.234-3.906-14.143-.002-3.905 3.905-3.906 10.236-.002 14.143 5.816 5.816 10.253 15.419 10.253 24.75 0 19.299-15.701 35-35 35s-35-15.701-35-35v-65h20c5.522 0 10-4.478 10-10s-4.478-10-10-10h-20v-65c0-19.299 15.701-35 35-35s35 15.701 35 35c0 9.247-4.366 18.862-10.252 24.75-3.904 3.906-3.903 10.237.002 14.143 3.905 3.904 10.236 3.904 14.143-.002 1.566-1.567 3.029-3.221 4.389-4.953 13.409 9.234 21.718 24.576 21.718 41.062s-8.309 31.828-21.719 41.062z" fill="#000000" data-original="#000000" class=""></path><path d="m76 210c-5.522 0-10 4.478-10 10v30c0 5.522 4.478 10 10 10s10-4.478 10-10v-20h20c5.522 0 10-4.478 10-10s-4.478-10-10-10z" fill="#000000" data-original="#000000" class=""></path><path d="m436 260c5.522 0 10-4.478 10-10v-30c0-5.522-4.478-10-10-10h-30c-5.522 0-10 4.478-10 10s4.478 10 10 10h20v20c0 5.522 4.478 10 10 10z" fill="#000000" data-original="#000000" class=""></path><circle cx="256" cy="502" r="10" fill="#000000" data-original="#000000" class=""></circle><path d="m291 502c0 5.522 4.478 10 10 10h21c5.522 0 10-4.478 10-10 0-39.29-37.918-70-76-70-38.048 0-76 30.684-76 70 0 5.522 4.478 10 10 10h21c5.522 0 10-4.478 10-10s-4.478-10-10-10h-9.771c5.846-23.458 31.52-40 54.771-40s48.925 16.542 54.771 40h-9.771c-5.522 0-10 4.478-10 10z" fill="#000000" data-original="#000000" class=""></path></g></g></g></svg>