<svg width="24" height="24" viewBox="0 0 24 24" fill="none" xmlns="http://www.w3.org/2000/svg">
<g clip-path="url(#clip0_190_387)">
<path d="M0 9.95115C0 12.0697 1.71741 13.7871 3.83592 13.7871C4.01869 13.7871 4.19822 13.7734 4.37419 13.7487C4.33973 13.975 4.32183 14.2067 4.32183 14.4427C4.32183 16.9683 6.36923 19.0157 8.89486 19.0157C10.6464 19.0157 12.1672 18.0306 12.9354 16.5845C13.6384 17.4612 14.7177 18.0231 15.9289 18.0231C18.0474 18.0231 19.7648 16.3057 19.7648 14.1872C19.7648 14.0163 19.7525 13.8484 19.7309 13.6835C20.0181 13.7632 20.3203 13.8067 20.6329 13.8067C22.4925 13.8067 24 12.2991 24 10.4395C24 8.57986 22.4925 7.07232 20.6329 7.07232C20.4548 7.07232 20.28 7.08638 20.1095 7.113C20.2518 6.71185 20.33 6.28032 20.33 5.83036C20.33 3.71185 18.6126 1.99444 16.494 1.99444C15.5355 1.99444 14.6599 2.3468 13.9875 2.928C13.059 1.44221 11.409 0.453613 9.52791 0.453613C6.6255 0.453613 4.27266 2.80646 4.27266 5.70886C4.27266 5.85507 4.27889 5.99977 4.29061 6.14293C4.14141 6.1253 3.98991 6.11518 3.83597 6.11518C1.71741 6.11522 0 7.83263 0 9.95115H0Z" fill="#D8ECFE"/>
<path d="M8.07117 14.4426C8.07117 14.2065 8.08903 13.9747 8.1233 13.7487C7.94752 13.7733 7.76789 13.7868 7.58489 13.7868C5.46642 13.7868 3.74925 12.0697 3.74925 9.95119C3.74925 7.83272 5.46642 6.11503 7.58489 6.11503C7.73892 6.11503 7.89056 6.12516 8.03977 6.14307C8.02819 5.99963 8.02191 5.85479 8.02191 5.70896C8.02191 3.46688 9.42567 1.55264 11.4027 0.79791C10.8203 0.575301 10.1882 0.453613 9.52809 0.453613C6.62541 0.453613 4.2727 2.80627 4.2727 5.709C4.2727 5.85483 4.27898 5.99972 4.29056 6.14311C4.14136 6.12525 3.98972 6.11508 3.83616 6.11508C1.71717 6.11508 0 7.83272 0 9.95119C0 12.0697 1.71717 13.7868 3.83616 13.7868C4.01869 13.7868 4.19831 13.7733 4.37409 13.7487C4.33983 13.9747 4.32192 14.2065 4.32192 14.4426C4.32192 16.9681 6.36942 19.0156 8.89495 19.0156C9.5633 19.0156 10.1978 18.8722 10.7696 18.6148C9.17892 17.8992 8.07117 16.3003 8.07117 14.4426Z" fill="#C4E2FF"/>
<path d="M13.6612 23.5464C14.7174 23.5464 15.5735 22.6902 15.5735 21.6341C15.5735 20.5779 14.7174 19.7217 13.6612 19.7217C12.6051 19.7217 11.7489 20.5779 11.7489 21.6341C11.7489 22.6902 12.6051 23.5464 13.6612 23.5464Z" fill="#D8ECFE"/>
<path d="M14.316 23.4315C14.1117 23.5058 13.891 23.5464 13.6612 23.5464C12.6051 23.5464 11.7489 22.6902 11.7489 21.6341C11.7489 20.578 12.6051 19.7219 13.6612 19.7219C13.891 19.7219 14.1117 19.7624 14.316 19.8368C13.5819 20.1043 13.058 20.8079 13.058 21.6341C13.058 22.4603 13.5819 23.1639 14.316 23.4315Z" fill="#C4E2FF"/>
<path d="M12.1551 11.9604C11.6825 11.9604 11.2995 11.5773 11.2995 11.1048V10.7418C11.2995 9.89729 11.8313 9.14185 12.6229 8.86196C13.2183 8.65145 13.6019 8.0626 13.5558 7.43012C13.5053 6.73749 12.9445 6.18095 12.2514 6.13557C11.5182 6.08715 10.865 6.6166 10.7641 7.34003C10.7551 7.40467 10.7505 7.47099 10.7505 7.53699C10.7505 8.00954 10.3675 8.3926 9.89492 8.3926C9.42237 8.3926 9.03931 8.00954 9.03931 7.53699C9.03931 7.39215 9.04943 7.24628 9.06935 7.10354C9.29356 5.49695 10.7404 4.32146 12.3633 4.42796C13.9039 4.52884 15.1504 5.76601 15.2626 7.30567C15.3646 8.70507 14.5137 10.0085 13.1934 10.4753C13.0842 10.5139 13.0108 10.621 13.0108 10.7418V11.1047C13.0107 11.5773 12.6276 11.9604 12.1551 11.9604V11.9604Z" fill="#0573CE"/>
<path d="M12.155 14.6512C11.6825 14.6512 11.2994 14.2682 11.2994 13.7956V13.7885C11.2994 13.316 11.6825 12.9329 12.155 12.9329C12.6276 12.9329 13.0107 13.316 13.0107 13.7885V13.7956C13.0107 14.2682 12.6276 14.6512 12.155 14.6512Z" fill="#0573CE"/>
<path d="M9.82556 7.10376C9.8055 7.2465 9.79565 7.39223 9.79565 7.53712C9.79565 7.87387 9.99009 8.16534 10.273 8.3047C10.1589 8.36109 10.0307 8.39273 9.89479 8.39273C9.42253 8.39273 9.03918 8.00981 9.03918 7.53712C9.03918 7.39223 9.04945 7.2465 9.06951 7.10376C9.29348 5.49684 10.7406 4.32155 12.3633 4.42795C12.4214 4.4318 12.4791 4.43737 12.5364 4.44464C11.1624 4.61386 10.0226 5.69255 9.82556 7.10376V7.10376Z" fill="black"/>
<path d="M13.3792 8.86198C12.5877 9.14192 12.0556 9.8975 12.0556 10.742V11.1049C12.0556 11.4416 12.2505 11.7331 12.5334 11.8724C12.4193 11.9288 12.2911 11.9605 12.1552 11.9605C11.6825 11.9605 11.2996 11.5775 11.2996 11.1049V10.742C11.2996 9.8975 11.8312 9.14192 12.6231 8.86198C13.2184 8.65128 13.6018 8.06281 13.5557 7.43028C13.5125 6.83539 13.0928 6.3409 12.5359 6.1849C12.6859 6.14258 12.8449 6.12509 13.0077 6.13573C13.7009 6.18101 14.2616 6.73747 14.3121 7.43023C14.3583 8.06276 13.9745 8.65128 13.3792 8.86198Z" fill="black"/>
<path d="M12.5334 14.5631C12.4193 14.6195 12.2911 14.6512 12.1552 14.6512C11.6825 14.6512 11.2996 14.2682 11.2996 13.7956V13.7883C11.2996 13.316 11.6825 12.9327 12.1552 12.9327C12.2911 12.9327 12.4193 12.9643 12.5334 13.0207C12.2505 13.1604 12.0556 13.4519 12.0556 13.7883V13.7956C12.0556 14.1323 12.2505 14.4238 12.5334 14.5631Z" fill="#0067C5"/>
</g>
<defs>
<clipPath id="clip0_190_387">
<rect width="24" height="24" fill="white"/>
</clipPath>
</defs>
</svg>
