<svg width="25" height="24" viewBox="0 0 25 24" fill="none" xmlns="http://www.w3.org/2000/svg">
<g clip-path="url(#clip0_199_345)">
<path d="M18.7917 20H4.12508V5.33333H12.9384L14.2717 4H4.12508C3.77146 4 3.43232 4.14048 3.18227 4.39052C2.93222 4.64057 2.79175 4.97971 2.79175 5.33333V20C2.79175 20.3536 2.93222 20.6928 3.18227 20.9428C3.43232 21.1929 3.77146 21.3333 4.12508 21.3333H18.7917C19.1454 21.3333 19.4845 21.1929 19.7346 20.9428C19.9846 20.6928 20.1251 20.3536 20.1251 20V10L18.7917 11.3333V20Z" fill="#888888" stroke="#888888" stroke-width="0.5"/>
<path d="M22.4784 3.89332L20.2317 1.64665C20.132 1.54667 20.0136 1.46735 19.8831 1.41322C19.7527 1.3591 19.6129 1.33124 19.4717 1.33124C19.3305 1.33124 19.1907 1.3591 19.0603 1.41322C18.9299 1.46735 18.8114 1.54667 18.7117 1.64665L9.57172 10.84L8.83172 14.0467C8.80019 14.2021 8.80351 14.3626 8.84142 14.5166C8.87934 14.6706 8.95092 14.8143 9.051 14.9373C9.15109 15.0604 9.2772 15.1597 9.42026 15.2282C9.56332 15.2966 9.71978 15.3325 9.87839 15.3333C9.96036 15.3423 10.0431 15.3423 10.1251 15.3333L13.3584 14.62L22.4784 5.41332C22.5784 5.31361 22.6577 5.19516 22.7118 5.06474C22.7659 4.93433 22.7938 4.79452 22.7938 4.65332C22.7938 4.51212 22.7659 4.3723 22.7118 4.24189C22.6577 4.11148 22.5784 3.99302 22.4784 3.89332V3.89332ZM12.6651 13.3867L10.2251 13.9267L10.7917 11.5067L17.6717 4.57998L19.5517 6.45998L12.6651 13.3867ZM20.3051 5.70665L18.4251 3.82665L19.4584 2.77332L21.3517 4.66665L20.3051 5.70665Z" fill="#888888" stroke="#888888" stroke-width="0.5"/>
</g>
<defs>
<clipPath id="clip0_199_345">
<rect width="24" height="24" fill="white" transform="translate(0.125)"/>
</clipPath>
</defs>
</svg>
