<svg width="24" height="24" viewBox="0 0 24 24" fill="none" xmlns="http://www.w3.org/2000/svg">
<path d="M12.8151 12.197L5.28308 13.452C5.19649 13.4664 5.11522 13.5034 5.04746 13.5593C4.97971 13.6151 4.92784 13.6878 4.89708 13.77L2.30008 20.728C2.05208 21.368 2.72108 21.978 3.33508 21.67L21.3351 12.67C21.4595 12.6076 21.5641 12.5119 21.6372 12.3935C21.7103 12.2751 21.749 12.1387 21.749 11.9995C21.749 11.8603 21.7103 11.7239 21.6372 11.6055C21.5641 11.4871 21.4595 11.3913 21.3351 11.329L3.33508 2.32899C2.72108 2.02199 2.05208 2.63199 2.30008 3.27099L4.89808 10.229C4.92884 10.3112 4.98071 10.3839 5.04846 10.4397C5.11622 10.4955 5.19749 10.5325 5.28408 10.547L12.8161 11.802C12.8631 11.8095 12.9058 11.8335 12.9367 11.8697C12.9676 11.9059 12.9846 11.9519 12.9846 11.9995C12.9846 12.0471 12.9676 12.0931 12.9367 12.1293C12.9058 12.1655 12.8631 12.1895 12.8161 12.197H12.8151Z" fill="white"/>
</svg>
