<svg xmlns="http://www.w3.org/2000/svg" version="1.1" xmlns:xlink="http://www.w3.org/1999/xlink" xmlns:svgjs="http://svgjs.com/svgjs" width="512" height="512" x="0" y="0" viewBox="0 0 512 512" style="enable-background:new 0 0 512 512" xml:space="preserve" class=""><g><g><g><path d="m28.718 421.428h454.564v83.072h-454.564z" fill="#f9f097" data-original="#f9f097"></path><path d="m113.038 274.821 19.342 36.444-19.342 33.188-24.281 17.437-24.282-17.437c17.653-48.482 48.563-69.632 48.563-69.632z" fill="#eaeaea" data-original="#eaeaea"></path><path d="m239.834 274.821-19.342 36.444 19.342 33.188 24.282 17.437 24.282-17.437c-17.654-48.482-48.564-69.632-48.564-69.632z" fill="#eaeaea" data-original="#eaeaea"></path><path d="m113.038 344.454 19.342 28.132-19.342 43.499h-60.561c0-28.502 4.945-52.249 11.998-71.631z" fill="#ffd3bc" data-original="#ffd3bc"></path><path d="m239.834 344.454-19.342 28.132 19.342 43.499h60.561c0-28.502-4.945-52.249-11.998-71.631z" fill="#ffd3bc" data-original="#ffd3bc"></path><path d="m113.038 274.821h126.796v141.263h-126.796z" fill="#77718c" data-original="#77718c" class=""></path><path d="m210.115 416.084-18.235-93.269h-30.887l-18.235 93.269z" fill="#00cd8c" data-original="#00cd8c" class=""></path><path d="m154.857 275.82v31.929c0 11.918 9.661 21.58 21.58 21.58 11.918 0 21.58-9.661 21.58-21.58v-31.929z" fill="#36d39a" data-original="#36d39a"></path><path d="m453.715 387.193c5.748 0 10.789-3.834 12.325-9.373l27.406-98.867c2.259-8.148-3.87-16.206-12.325-16.206h-151.853l-27.406 124.445 71.411 9.877z" fill="#77718c" data-original="#77718c" class=""></path><circle cx="397.89" cy="324.97" fill="#827f98" r="19.484" data-original="#827f98"></circle><path d="m278.328 93.107c19.401-4.296 33.907-21.599 33.907-42.289 0-11.958-4.845-22.788-12.688-30.63-7.842-7.833-18.671-12.688-30.629-12.688h-132.272c-62.849 0-113.8 50.951-113.8 113.8v36.834h226.544z" fill="#e8a882" data-original="#e8a882"></path><path d="m148.289 7.5h-11.643c-62.849 0-113.8 50.951-113.8 113.8v36.834h59.082c1.595-59.097 26.729-112.314 66.361-150.634z" fill="#e3986d" data-original="#e3986d"></path><path d="m278.328 93.107c-3.027.679-6.184 1.029-9.411 1.029h-170.435c-17.069 0-32.349 10.475-38.626 26.348-3.456 8.738-5.958 17.957-7.379 27.53-.899 6.064-1.369 12.278-1.369 18.592 0 20 4.676 38.912 13.007 55.686 20.496 41.322 63.081 69.737 112.321 69.802 69.079.092 125.659-56.41 125.659-125.489 0-27.453-8.811-52.838-23.767-73.498z" fill="#ffd3bc" data-original="#ffd3bc"></path><path d="m314.187 377.82 27.406-98.867c2.259-8.148-3.87-16.206-12.325-16.206h-15.416c-5.748 0-10.789 3.834-12.325 9.373l-27.406 98.867c-2.259 8.148 3.87 16.206 12.325 16.206l8.271 6.864 7.146-6.864c5.747 0 10.788-3.835 12.324-9.373z" fill="#827f98" data-original="#827f98"></path><g><path d="m85.865 421.428h-57.147v83.072h90.615c-17.718-23.786-29.584-52.185-33.468-83.072z" fill="#f9d888" data-original="#f9d888"></path></g><path d="m483.282 387.193h-454.564c-11.586 0-20.978 9.392-20.978 20.978v17.524c0 11.586 9.392 20.978 20.978 20.978h454.564c11.586 0 20.978-9.392 20.978-20.978v-17.525c0-11.585-9.392-20.977-20.978-20.977z" fill="#ff6f7f" data-original="#ff6f7f"></path><path d="m81.843 164.122c0-24.355 3.999-47.776 11.373-69.645-14.887 1.906-27.737 11.787-33.36 26.006-3.456 8.738-5.958 17.957-7.379 27.53-1.109-.1-2.228-.15-3.367-.15-10.13 0-19.361 3.896-26.265 10.27-7.663 7.073-12.458 17.204-12.458 28.453 0 21.389 17.343 38.723 38.722 38.723 5.325 0 10.39-1.069 15.005-3.017 10.595 21.36 27.102 39.256 47.368 51.585-18.834-32.231-29.639-69.729-29.639-109.755z" fill="#ffbe9c" data-original="#ffbe9c"></path><g><g><g><path d="m84.475 399.196c0-4.036.148-8.036.415-12.004h-56.172c-11.586 0-20.978 9.392-20.978 20.978v17.524c0 11.586 9.392 20.978 20.978 20.978h62.227c-4.211-15.106-6.47-31.026-6.47-47.476z" fill="#fc5c70" data-original="#fc5c70"></path></g></g></g></g><g><path d="m124.881 167.482v12.612c0 4.142 3.358 7.5 7.5 7.5s7.5-3.358 7.5-7.5v-12.612c0-4.142-3.358-7.5-7.5-7.5s-7.5 3.358-7.5 7.5z" fill="#000000" data-original="#000000"></path><path d="m256.152 167.482v12.612c0 4.142 3.358 7.5 7.5 7.5s7.5-3.358 7.5-7.5v-12.612c0-4.142-3.358-7.5-7.5-7.5s-7.5 3.358-7.5 7.5z" fill="#000000" data-original="#000000"></path><path d="m209.666 174.791c-2.941 3.375-7.188 5.312-11.65 5.312s-8.708-1.936-11.65-5.312c-2.721-3.123-7.459-3.448-10.582-.727-3.123 2.722-3.448 7.459-.727 10.582 5.791 6.645 14.159 10.456 22.958 10.456 8.8 0 17.168-3.812 22.959-10.456 2.721-3.123 2.396-7.86-.727-10.582-3.122-2.72-7.86-2.396-10.581.727z" fill="#000000" data-original="#000000"></path><path d="m397.89 297.986c-14.879 0-26.983 12.105-26.983 26.984s12.104 26.984 26.983 26.984 26.984-12.105 26.984-26.984-12.105-26.984-26.984-26.984zm0 38.968c-6.608 0-11.983-5.376-11.983-11.984s5.375-11.984 11.983-11.984 11.984 5.376 11.984 11.984-5.376 11.984-11.984 11.984z" fill="#000000" data-original="#000000"></path><path d="m329.268 255.248h-15.416c-9.084 0-17.125 6.115-19.552 14.87l-12.022 43.371c-10.623-18.555-22.177-30.94-29.777-37.915 11.774-8.208 22.3-18.338 31.028-30.126 2.465-3.329 1.764-8.026-1.565-10.491-3.33-2.464-8.025-1.764-10.491 1.565-22.257 30.063-57.654 48.025-94.703 48.071-.108 0-.216.003-.323.003-45.941-.058-86.174-26.452-105.611-65.635-.001-.001-.001-.003-.002-.005-15.35-30.9-15.762-65.978-4.002-95.714 5.19-13.125 17.614-21.605 31.652-21.605h170.436c1.544 0 3.715-.086 5.965-.346 12.912 19.364 19.712 41.846 19.712 65.315 0 16.054-3.214 31.649-9.553 46.353-1.64 3.804.114 8.216 3.918 9.856s8.216-.115 9.856-3.918c7.152-16.59 10.779-34.183 10.779-52.292 0-24.822-6.76-48.665-19.621-69.55 17.721-8.135 29.761-26.185 29.761-46.237-.001-28.086-22.739-50.818-50.819-50.818h-132.272c-22.105 0-43.748 6.009-62.587 17.378-3.546 2.14-4.687 6.75-2.546 10.296s6.75 4.687 10.296 2.546c16.501-9.956 35.463-15.22 54.837-15.22h132.272c19.781 0 35.818 16.016 35.818 35.818 0 19.349-15.785 35.818-35.818 35.818h-170.436c-20.233 0-38.132 12.203-45.601 31.089-2.751 6.953-5.127 14.836-6.7 22.73-5.304.34-10.815 1.647-15.836 3.879v-23.034c0-27.493 10.461-53.576 29.455-73.444 2.863-2.994 2.756-7.742-.238-10.604s-7.741-2.756-10.604.238c-21.675 22.672-33.613 52.437-33.613 83.81v33.745c-7.947 8.518-12.458 19.825-12.458 31.542 0 30.006 28.355 52.216 57.577 44.818 9.796 17.529 23.43 32.622 39.9 44.161-25.337 23.222-45.564 59.531-52.595 104.126h-19.05c-15.703 0-28.478 12.775-28.478 28.478v17.524c0 13.107 8.903 24.167 20.978 27.468v51.338c0 4.142 3.358 7.5 7.5 7.5h454.564c4.142 0 7.5-3.358 7.5-7.5v-51.337c12.074-3.301 20.978-14.361 20.978-27.468v-17.524c0-15.703-12.775-28.478-28.478-28.478h-9.979l27.37-98.736c3.584-12.928-6.125-25.709-19.552-25.709zm-311.38-68.661c0-15.107 10.865-28.263 26.157-30.804-1.74 21.589 1.765 42.777 9.639 61.697-18.924 2.762-35.796-11.922-35.796-30.893zm290.867 87.538c.633-2.283 2.729-3.877 5.097-3.877h15.416c3.496 0 6.032 3.328 5.097 6.702l-27.406 98.866c-.633 2.283-2.729 3.877-5.097 3.877-16.668 0-15.789.058-16.635-.14-2.838-.662-4.701-3.597-3.878-6.563 8.397-30.292 11.374-41.031 27.406-98.865zm-98.113 105.568-10.719-54.825c3.513-4.806 5.593-10.723 5.593-17.118v-11.366c9.223-2.069 18.218-5.12 26.818-9.116v92.425zm-90.104 0c0-10.714 0-91.493 0-92.468 8.37 3.883 17.412 6.983 26.556 9.057.087.02.174.042.261.062v11.406c0 6.396 2.08 12.312 5.593 17.118l-10.718 54.825zm56.064-80.098c3.995 0 9.288-.246 13.914-.733v8.888c0 7.841-6.424 14.08-14.08 14.08-7.685 0-14.08-6.268-14.08-14.08v-8.914c4.039.436 9.423.754 14.07.759zm-10.35 35.408c6.283 2.348 13.681 2.499 20.368 0l8.737 44.69h-37.842zm81.082 16.951h24.28l-4.721 17.029c-.001.004-.002.009-.003.013-.934 3.375-1.017 7.136-.051 10.697h-19.506v-27.739zm29.029-17.128-.59 2.128h-28.438v-45.413c8.395 8.698 19.791 22.936 29.028 43.285zm-175.729-37.986c1.713-1.973 3.359-3.756 4.905-5.352v45.466h-29.986c8.065-18.415 17.824-31.754 25.081-40.114zm-30.824 55.114h35.728v27.739h-42.577c1.626-9.586 3.919-18.872 6.849-27.739zm-33.592 145.046v-42.827h439.564v42.827zm460.542-88.829v17.524c0 7.431-6.044 13.476-13.475 13.478-.001 0-.002 0-.002 0h-454.565c-.001 0-.001 0-.002 0-7.43-.001-13.475-6.047-13.475-13.478v-17.524c0-7.432 6.046-13.478 13.478-13.478h454.563c7.432 0 13.478 6.046 13.478 13.478zm-10.542-131.221-27.406 98.866c-.633 2.283-2.729 3.877-5.097 3.877h-132.265l27.37-98.736c.996-3.597.963-7.373.053-10.709h132.248c3.498 0 6.032 3.329 5.097 6.702z" fill="#000000" data-original="#000000"></path></g></g></g></svg>